<?xml version="1.0" standalone="no"?>
<!DOCTYPE svg PUBLIC "-//W3C//DTD SVG 20010904//EN"
 "http://www.w3.org/TR/2001/REC-SVG-20010904/DTD/svg10.dtd">
<svg version="1.0" xmlns="http://www.w3.org/2000/svg"
 width="100.000000pt" height="200.000000pt" viewBox="0 0 1280.000000 1244.000000"
 preserveAspectRatio="xMidYMid meet">
<metadata>
Created by potrace 1.15, written by Peter Selinger 2001-2017
</metadata>
<g transform="translate(0.000000,1244.000000) scale(0.100000,-0.100000)"
fill="#000000" stroke="none">
<path d="M5522 12420 c-18 -30 -15 -67 9 -91 l21 -21 -31 7 c-17 4 -31 3 -31
-1 0 -31 221 -258 335 -345 147 -112 173 -125 345 -173 185 -52 471 -117 755
-171 797 -152 939 -183 1153 -251 168 -53 372 -134 677 -269 479 -212 597
-258 915 -361 522 -168 948 -375 1420 -687 162 -108 255 -153 415 -202 347
-105 430 -137 502 -191 17 -13 34 -24 38 -24 18 0 -71 108 -164 200 -77 76
-93 95 -58 70 78 -55 199 -189 230 -253 l28 -58 -110 -292 c-60 -160 -200
-533 -311 -827 -112 -294 -265 -704 -340 -910 -76 -206 -152 -400 -168 -430
-17 -30 -99 -203 -182 -385 -83 -181 -180 -377 -215 -436 -339 -572 -642
-1181 -828 -1669 -60 -157 -127 -348 -127 -358 1 -4 12 13 25 38 13 25 24 42
25 38 0 -13 -70 -146 -79 -150 -5 -2 -57 -104 -115 -228 -128 -273 -121 -260
-227 -412 -177 -254 -295 -474 -344 -643 -28 -93 -40 -211 -24 -221 29 -18
224 169 346 330 150 200 257 393 537 974 283 585 342 684 611 1022 214 269
286 378 344 517 58 141 72 211 106 518 36 319 74 543 131 765 3 14 -17 -21
-45 -77 -28 -57 -108 -187 -177 -290 -127 -190 -168 -245 -122 -163 151 265
330 616 452 883 68 148 90 186 188 315 321 425 530 809 770 1417 89 224 95
244 94 308 0 37 2 67 5 67 8 0 89 -70 121 -105 82 -89 110 -243 66 -361 -13
-34 -345 -686 -739 -1450 l-717 -1389 5 -113 c12 -259 -62 -490 -350 -1087
-74 -154 -192 -406 -262 -560 -274 -602 -382 -831 -765 -1620 -540 -1113 -880
-1771 -1157 -2242 -45 -78 -83 -146 -83 -151 0 -19 84 -91 154 -131 108 -61
100 -63 131 26 309 870 528 1357 1367 3038 839 1683 1193 2467 1513 3350 45
127 121 337 169 467 123 342 195 517 306 743 120 245 170 324 350 557 315 408
424 614 378 711 -20 42 -102 144 -263 327 -71 80 -179 206 -241 281 -196 236
-278 302 -574 462 -198 107 -184 98 -445 266 -671 430 -1311 763 -1972 1025
-579 230 -1068 376 -1673 501 -365 76 -664 135 -674 134 -21 -1 298 -97 854
-258 782 -225 1098 -335 1513 -526 81 -37 146 -69 144 -71 -2 -2 -62 21 -133
52 -161 69 -832 294 -1504 504 -91 28 -192 60 -225 70 -239 75 -893 265 -1140
330 -161 43 -184 51 -120 45 42 -4 34 0 -50 25 -208 62 -458 156 -658 249 -49
23 -90 41 -91 41 0 0 -7 -9 -14 -20z m6718 -3090 c0 -5 -2 -10 -4 -10 -3 0 -8
5 -11 10 -3 6 -1 10 4 10 6 0 11 -4 11 -10z m-1561 -3204 c-28 -59 -56 -109
-61 -112 -5 -3 17 46 49 110 31 63 59 114 61 112 1 -2 -20 -52 -49 -110z
m-178 -392 c-11 -27 -20 -45 -20 -39 -1 14 31 96 36 92 2 -3 -5 -26 -16 -53z
m-425 -1050 c-58 -115 -105 -206 -105 -202 -1 11 203 418 207 414 2 -2 -44
-98 -102 -212z m-113 -89 c-3 -9 -8 -14 -10 -11 -3 3 -2 9 2 15 9 16 15 13 8
-4z m-20 -40 c-3 -9 -8 -14 -10 -11 -3 3 -2 9 2 15 9 16 15 13 8 -4z m-20 -40
c-3 -9 -8 -14 -10 -11 -3 3 -2 9 2 15 9 16 15 13 8 -4z m-20 -40 c-3 -9 -8
-14 -10 -11 -3 3 -2 9 2 15 9 16 15 13 8 -4z m-832 -1712 c-8 -15 -10 -15 -11
-2 0 17 10 32 18 25 2 -3 -1 -13 -7 -23z"/>
<path d="M4700 12203 c-249 -24 -470 -84 -559 -150 -71 -55 -93 -173 -57 -323
50 -212 43 -274 -38 -355 -47 -47 -61 -54 -171 -90 -198 -63 -236 -89 -295
-207 -37 -75 -40 -86 -39 -162 0 -44 3 -112 8 -149 12 -112 -23 -164 -136
-207 -110 -41 -176 -102 -224 -205 -58 -126 -73 -290 -40 -450 l18 -90 -63
-94 -63 -95 -103 -1 c-80 -1 -115 -6 -159 -23 -80 -32 -142 -90 -181 -170 -33
-66 -33 -68 -31 -202 2 -187 5 -183 -186 -301 -51 -31 -122 -113 -157 -181 -8
-15 -30 -83 -50 -150 l-35 -122 16 -82 c31 -154 21 -164 -187 -199 -213 -36
-287 -74 -330 -172 -42 -96 -32 -254 27 -403 25 -64 84 -170 95 -170 7 0 84
116 105 159 32 64 45 126 45 216 l0 90 64 33 c36 19 95 61 133 95 59 54 65 58
46 27 -11 -19 -80 -138 -153 -265 -211 -367 -263 -454 -402 -668 -194 -301
-198 -297 -14 13 63 107 114 196 112 197 -1 2 -58 -15 -127 -38 -156 -51 -302
-127 -378 -195 -57 -52 -59 -55 -76 -137 -24 -117 -18 -250 17 -334 22 -55 65
-121 78 -122 3 -1 20 25 37 57 53 95 66 103 22 13 -31 -63 -48 -119 -69 -221
-30 -149 -54 -213 -91 -246 -22 -19 -199 -115 -199 -108 0 2 13 24 30 50 16
26 27 50 25 54 -3 5 -34 13 -70 19 -178 31 -356 -71 -441 -254 -77 -167 -56
-354 54 -468 56 -58 70 -63 83 -30 11 28 11 28 24 -22 7 -27 13 -50 12 -51 -1
0 -19 -10 -40 -22 -47 -27 -51 -27 -36 -1 11 22 11 22 -107 16 -133 -5 -193
-21 -274 -69 -64 -39 -110 -95 -141 -175 -19 -49 -23 -78 -23 -183 -1 -136 11
-180 71 -258 l26 -35 87 6 88 7 43 -48 c62 -66 109 -125 168 -211 l51 -74 -28
-17 c-40 -24 -51 -42 -61 -92 -28 -152 112 -497 265 -653 100 -103 199 -153
444 -224 790 -230 1411 -520 2518 -1174 405 -240 1160 -637 1782 -937 1412
-682 2288 -1010 2697 -1010 80 0 85 -1 130 -36 42 -32 223 -130 223 -120 0 2
-24 45 -54 95 -37 63 -52 98 -48 113 4 16 2 20 -10 16 -37 -15 -95 228 -82
344 6 56 6 58 -34 103 -104 118 -95 290 29 524 63 119 120 203 283 420 316
419 389 522 416 587 38 87 18 197 -37 210 -14 4 -37 -2 -58 -15 l-36 -21 13
23 c7 12 11 25 10 29 -1 4 14 31 33 60 37 56 99 202 93 220 -2 6 -25 -36 -52
-93 -26 -57 -62 -131 -81 -163 l-33 -59 -16 37 c-19 45 -15 46 -131 -53 -238
-204 -471 -544 -734 -1068 -28 -57 -53 -103 -56 -103 -3 0 -26 15 -52 34 -153
108 -641 294 -1068 405 -104 27 -266 76 -360 109 -232 82 -265 95 -265 106 0
19 -76 100 -134 144 -89 66 -216 123 -436 198 -212 71 -312 114 -387 164 -61
42 -135 112 -179 172 -27 36 -68 67 -172 131 -412 251 -857 472 -1457 722
-270 112 -334 137 -1055 415 -968 372 -1438 575 -1563 675 -147 117 -157 237
-28 343 46 37 57 42 104 42 29 0 83 -9 121 -20 l69 -19 31 26 c36 30 57 65 48
79 -4 6 -24 22 -45 36 -56 38 -69 61 -68 125 1 103 89 251 236 398 90 91 207
183 242 191 12 3 54 -4 93 -15 41 -13 80 -19 95 -15 32 8 65 49 65 82 0 37
-79 107 -179 160 -57 31 -79 47 -73 55 169 216 346 478 482 712 157 272 168
285 271 324 75 29 98 27 189 -19 91 -46 132 -50 154 -18 18 26 21 84 5 125 -5
15 -61 78 -124 138 -93 90 -116 118 -125 152 -23 90 42 231 183 394 l41 48 42
-39 c85 -78 159 -93 208 -41 80 84 10 237 -117 258 -22 3 -36 10 -34 17 2 6
30 90 62 186 90 275 141 360 239 406 64 30 92 30 225 -1 113 -26 145 -24 198
10 34 23 63 74 63 113 0 46 -29 71 -159 136 -64 33 -116 65 -123 78 -8 14 -12
53 -12 98 3 168 100 330 199 330 17 0 91 -29 166 -64 75 -34 147 -66 162 -70
24 -6 25 -4 18 21 -29 98 -68 148 -163 210 -43 27 -72 53 -79 71 -22 58 17
156 119 301 114 161 142 212 142 255 0 39 -23 49 -93 43 -83 -8 -130 -23 -166
-52 -16 -14 -32 -25 -35 -25 -11 0 -6 90 5 113 19 36 60 76 139 134 41 31 88
67 104 82 l29 26 -27 -42 c-14 -24 -26 -44 -26 -47 0 -2 23 -6 50 -10 34 -5
104 -34 212 -88 193 -98 239 -107 313 -64 25 15 52 38 61 52 22 32 13 94 -18
134 -32 41 -129 113 -206 152 -36 20 -60 38 -57 45 2 7 28 45 58 85 29 40 94
129 143 197 49 68 116 152 149 187 l60 64 98 0 c95 0 97 1 97 23 0 13 -13 44
-30 70 -16 26 -30 49 -30 51 0 2 32 36 70 75 39 40 115 133 171 207 128 172
135 177 259 168 63 -4 108 -13 133 -26 52 -26 78 -20 99 22 20 40 24 121 7
153 -7 12 -44 56 -85 98 -89 92 -94 109 -69 210 8 33 -35 57 -133 75 -70 12
-234 16 -322 7z m-288 -309 c59 -14 119 -35 133 -46 50 -39 23 -104 -85 -201
l-54 -48 -15 25 c-9 14 -19 26 -23 26 -3 0 -39 -53 -79 -117 -88 -143 -107
-165 -49 -58 51 96 105 227 125 303 16 65 15 67 -60 119 -35 25 -42 33 -25 29
14 -3 73 -18 132 -32z m51 -491 c-228 -264 -435 -536 -603 -788 -106 -159
-128 -187 -80 -100 55 99 197 312 289 434 121 161 491 591 508 591 2 0 -49
-62 -114 -137z m-463 -434 c-22 -65 -91 -179 -129 -213 -21 -19 -21 -19 -21 0
0 10 5 37 10 58 7 32 6 37 -5 25 -7 -8 -129 -187 -271 -399 -141 -212 -262
-389 -267 -395 -6 -5 -4 1 5 15 347 569 368 604 460 733 40 56 108 146 152
201 79 98 81 100 84 70 2 -17 -7 -60 -18 -95z m-986 -1616 c-57 -130 -150
-278 -158 -252 -33 113 -33 126 0 190 23 46 33 54 97 85 40 18 75 33 79 34 4
0 -4 -26 -18 -57z m-412 -669 c11 -11 -57 -117 -110 -171 -30 -30 -56 -53 -58
-50 -2 2 24 54 58 115 49 87 68 112 84 112 11 0 23 -3 26 -6z m-3 -371 c-121
-235 -198 -378 -292 -543 -94 -166 -559 -944 -570 -955 -14 -14 -17 -20 130
235 167 289 621 1094 743 1317 52 95 96 170 98 168 2 -2 -47 -102 -109 -222z
m-1296 -2241 c-15 -27 -190 -326 -388 -665 -197 -339 -361 -614 -363 -612 -6
6 131 285 202 410 123 216 560 915 573 915 3 0 -8 -22 -24 -48z m-327 -207
c12 -18 14 -35 9 -62 -12 -68 -97 -216 -153 -266 -19 -18 -20 -17 -46 34 -37
75 -35 139 6 224 28 56 38 67 73 79 62 22 92 20 111 -9z m-477 -684 c-17 -34
-34 -59 -36 -57 -3 3 10 32 28 65 17 34 34 59 36 57 3 -3 -10 -32 -28 -65z
m-100 -236 c-61 -179 -92 -221 -53 -72 15 59 81 203 89 195 3 -2 -14 -58 -36
-123z m478 -967 c130 -103 328 -226 527 -329 252 -129 480 -227 1016 -436 583
-226 823 -343 1595 -778 550 -310 856 -469 1130 -587 299 -130 394 -159 730
-223 437 -83 569 -133 868 -327 157 -101 259 -158 387 -214 47 -20 141 -68
210 -105 227 -124 320 -144 428 -94 88 41 151 30 206 -35 22 -26 27 -29 32
-15 10 25 -3 110 -22 147 -9 18 -34 54 -55 80 l-39 47 47 -21 c94 -42 82 -51
234 185 75 117 134 214 132 217 -3 3 -31 -23 -64 -58 -103 -110 -85 -84 174
245 27 35 51 63 53 63 4 0 -49 -86 -98 -157 -29 -44 -35 -58 -18 -48 6 4 -4
-17 -23 -47 -63 -98 -165 -292 -211 -400 -42 -100 -58 -146 -86 -257 -9 -33
-14 -41 -21 -30 -5 8 -6 -31 -3 -102 4 -64 4 -128 0 -143 -9 -35 -73 -65 -139
-66 -122 0 -380 74 -712 205 -93 37 -259 100 -369 142 -505 190 -964 407
-1851 875 -192 102 -496 261 -675 353 -179 92 -478 251 -665 353 -802 436
-1132 590 -1570 732 -353 115 -430 141 -575 197 -174 66 -411 179 -535 254
-89 54 -265 179 -264 189 0 3 14 14 32 25 18 11 42 40 55 65 29 57 25 116 -15
192 -15 29 -30 58 -32 63 -2 6 18 -11 45 -37 27 -26 90 -80 141 -120z m3103
-1138 c8 -5 11 -10 5 -10 -5 0 -17 5 -25 10 -8 5 -10 10 -5 10 6 0 17 -5 25
-10z m90 -40 c8 -5 11 -10 5 -10 -5 0 -17 5 -25 10 -8 5 -10 10 -5 10 6 0 17
-5 25 -10z m100 -45 c14 -8 21 -14 15 -14 -5 0 -21 6 -35 14 -14 8 -20 14 -15
14 6 0 21 -6 35 -14z m100 -45 c19 -11 31 -19 25 -19 -5 0 -26 8 -45 19 -19
11 -30 19 -25 19 6 0 26 -8 45 -19z m883 -390 c449 -200 816 -365 814 -366 -4
-4 -646 277 -1247 546 -350 156 -445 201 -400 187 8 -3 383 -168 833 -367z
m877 -390 c19 -11 31 -19 25 -19 -5 0 -26 8 -45 19 -19 11 -30 19 -25 19 6 0
26 -8 45 -19z m80 -35 c14 -8 21 -14 15 -14 -5 0 -21 6 -35 14 -14 8 -20 14
-15 14 6 0 21 -6 35 -14z"/>
<path d="M6551 12076 c5 -6 276 -76 292 -76 7 0 7 3 2 9 -6 5 -71 23 -144 40
-134 31 -158 35 -150 27z"/>
<path d="M6506 10386 c-67 -25 -88 -48 -169 -182 -168 -276 -256 -417 -395
-634 -211 -328 -211 -328 -378 -653 -176 -342 -258 -474 -355 -570 -38 -37
-69 -75 -69 -85 1 -33 39 -102 86 -153 108 -114 285 -206 708 -368 395 -151
702 -323 1036 -580 329 -253 416 -291 833 -357 254 -40 273 -44 432 -90 208
-61 346 -57 500 15 184 86 274 216 440 636 118 297 153 363 330 625 344 509
448 744 424 960 -15 135 -110 235 -339 358 -186 101 -489 207 -1031 362 -548
157 -1341 447 -1614 591 -236 123 -353 157 -439 125z m319 -500 c244 -69 855
-292 2055 -749 355 -135 657 -250 673 -256 l27 -11 -36 -62 c-75 -132 -235
-465 -369 -768 -234 -530 -447 -937 -541 -1037 -34 -36 -47 -43 -78 -43 -66 0
-245 78 -546 237 -63 34 -181 84 -261 111 -293 101 -509 195 -1034 452 -148
73 -398 190 -554 262 -409 187 -631 302 -631 327 0 4 8 32 19 62 35 102 61
236 64 331 3 93 4 96 60 201 89 168 210 342 397 567 226 273 335 368 463 401
57 15 197 3 292 -25z"/>
<path d="M11268 7218 c-52 -122 -91 -229 -86 -234 3 -2 32 67 66 153 65 168
78 218 20 81z"/>
<path d="M10314 4372 c-174 -216 -303 -422 -448 -717 -108 -218 -167 -355
-302 -700 -52 -136 -145 -346 -205 -468 -119 -242 -177 -402 -186 -512 -3 -38
-3 -68 -1 -65 8 8 417 779 485 915 75 150 147 305 232 505 41 94 123 252 208
400 229 399 281 515 290 653 3 42 4 77 2 77 -2 0 -36 -39 -75 -88z"/>
<path d="M9946 3302 c-26 -53 -117 -227 -201 -387 -170 -324 -338 -655 -330
-655 6 0 178 290 259 438 113 205 335 686 323 698 -1 2 -25 -40 -51 -94z"/>
</g>
</svg>
